<svg xmlns="http://www.w3.org/2000/svg" width="14.362" height="18.006" viewBox="0 0 14.362 18.006">
  <path id="Icon_metro-file-excel" data-name="Icon metro-file-excel" d="M16.3,6.022a2.366,2.366,0,0,1,.449.764,2.465,2.465,0,0,1,.187.884V19.244a.966.966,0,0,1-.262.683.836.836,0,0,1-.636.281H3.468a.836.836,0,0,1-.636-.281.967.967,0,0,1-.262-.683V3.168a.967.967,0,0,1,.262-.683A.836.836,0,0,1,3.468,2.2h8.378a2.033,2.033,0,0,1,.823.2,2.163,2.163,0,0,1,.711.482ZM12.145,3.57V7.348h3.516a1.124,1.124,0,0,0-.206-.412L12.529,3.791a1,1,0,0,0-.383-.221Zm3.59,15.353V8.634h-3.89a.836.836,0,0,1-.636-.281.967.967,0,0,1-.262-.683V3.49H3.768V18.923H15.736ZM6.582,16.572v1.065H9.209V16.572h-.7l.963-1.618a1.464,1.464,0,0,0,.093-.166q.047-.1.07-.136t.033-.04h.019a.357.357,0,0,0,.047.1.572.572,0,0,0,.042.075q.023.035.056.08l.061.085,1,1.618h-.711v1.065H12.9V16.572h-.636l-1.8-2.743L12.295,11h.626V9.92H10.313V11H11l-.963,1.6q-.037.07-.093.166t-.084.136l-.019.03H9.826a.357.357,0,0,0-.047-.1,1.2,1.2,0,0,0-.159-.231L8.63,11H9.34V9.92H6.629V11h.636l1.767,2.733L7.218,16.572H6.582Z" transform="translate(-2.571 -2.203)" fill="#727272"/>
</svg>
