<?xml version="1.0" encoding="UTF-8"?><svg id="Layer_2" xmlns="http://www.w3.org/2000/svg" xmlns:xlink="http://www.w3.org/1999/xlink" viewBox="0 0 850.39 850.39"><defs><style>.cls-1{fill:url(#linear-gradient-2);}.cls-2{fill:#fff;}.cls-3{fill:none;stroke:#1d1d1b;stroke-miterlimit:10;stroke-width:1.2px;}.cls-4{fill:url(#linear-gradient-3);}.cls-5{fill:url(#linear-gradient);}.cls-6{fill:url(#linear-gradient-4);}</style><linearGradient id="linear-gradient" x1="425.43" y1="17.65" x2="425.43" y2="847.46" gradientUnits="userSpaceOnUse"><stop offset="0" stop-color="#40ae5a"/><stop offset="1" stop-color="#0f789c"/></linearGradient><linearGradient id="linear-gradient-2" x1="587.72" y1="31.73" x2="584.6" y2="803.33" xlink:href="#linear-gradient"/><linearGradient id="linear-gradient-3" x1="393.03" y1="663.79" x2="393.03" y2="368.55" gradientUnits="userSpaceOnUse"><stop offset="0" stop-color="#3c3c3b"/><stop offset=".68" stop-color="#5d5d5c"/><stop offset="1" stop-color="#706f6f"/></linearGradient><linearGradient id="linear-gradient-4" x1="396.08" y1="355.5" x2="398.04" y2="181.19" gradientUnits="userSpaceOnUse"><stop offset="0" stop-color="#c4b36c"/><stop offset=".12" stop-color="#c89556"/><stop offset=".27" stop-color="#cc753f"/><stop offset=".44" stop-color="#d05c2d"/><stop offset=".6" stop-color="#d24a20"/><stop offset=".78" stop-color="#d44018"/><stop offset=".99" stop-color="#d53d16"/></linearGradient></defs><ellipse class="cls-5" cx="425.43" cy="432.25" rx="414.91" ry="399.83"/><path class="cls-2" d="m811.75,431.75c0,210.28-183.04,381.05-409.85,383.55v-75.8l46.28-113.25,58.6-20.19,33.98,23.15-31.03-68.45-55.5,10.34,75.69-99.96,104.39,88.14-101.43-237.34-65.98,102.91,29.05-98.96-94.05-233.4v-44.29c226.81,2.5,409.85,173.27,409.85,383.55Z"/><path class="cls-2" d="m98.79,274.95c32.57,54.05,65.13,108.1,97.7,162.15.54.89,1.69,3.08,1.67,6.1-.02,2.95-1.17,5.09-1.71,5.98-29.75,47.98-59.5,95.96-89.25,143.94-.83,1.81-2.48,2.64-3.41,2.29-1.03-.39-1.8-2.45-.73-4.58,24.21-47.27,48.43-94.53,72.64-141.8.51-.89,1.33-2.64,1.37-4.96.06-3.8-2.05-6.4-2.65-7.09-27.63-52.72-55.26-105.43-82.9-158.15-1.05-1.98-.45-4.38,1.19-5.5,1.89-1.29,4.8-.66,6.06,1.63Z"/><path class="cls-2" d="m120.26,648.38c63.83,1.07,127.65,2.14,191.48,3.22,1.65-.13,6.39-.27,11.12,2.73,6.29,3.99,7.79,10.51,8.06,11.77,18.92,45.71,37.83,91.43,56.75,137.14.25,1.55.41,3.55-.43,3.98-1.06.54-3.21-1.71-3.97-2.5-11.02-11.54-65.72-119.02-66.44-120.39-.08-.15-.16-.31-.16-.31-.8-1.5-2.06-3.73-2.68-4.59-.57-.8-1.94-2.3-5.27-3.29-62.83-6.61-125.65-13.22-188.48-19.83-4.35.07-5.9-2.44-5.91-4.12,0-1.69,1.54-3.85,5.93-3.79Z"/><path class="cls-2" d="m120.26,245.45c63.83-1.07,127.65-2.14,191.48-3.22,1.65.13,6.39.27,11.12-2.73,6.29-3.99,7.79-10.51,8.06-11.77,18.92-45.71,37.83-91.43,56.75-137.14.25-1.55.41-3.55-.43-3.98-1.06-.54-3.21,1.71-3.97,2.5-11.02,11.54-65.72,119.02-66.44,120.39-.08.15-.16.31-.16.31-.8,1.5-2.06,3.73-2.68,4.59-.57.8-1.94,2.3-5.27,3.29-62.83,6.61-125.65,13.22-188.48,19.83-4.35-.07-5.9,2.44-5.91,4.12,0,1.69,1.54,3.85,5.93,3.79Z"/><path class="cls-1" d="m733.84,267.21c1.64,1.12,2.25,3.52,1.19,5.5-27.63,52.72-55.26,105.43-82.9,158.15-.6.69-2.71,3.29-2.65,7.09.04,2.32.86,4.07,1.37,4.96,24.21,47.27,48.43,94.53,72.64,141.8,1.07,2.14.3,4.2-.73,4.58-.93.35-2.57-.48-3.41-2.29-29.75-47.98-59.5-95.96-89.25-143.94-.54-.89-1.69-3.02-1.71-5.98-.02-3.02,1.13-5.2,1.67-6.1,32.57-54.05,65.13-108.1,97.7-162.15,1.27-2.29,4.17-2.92,6.06-1.63Zm-27.54,381.17c-63.83,1.07-127.65,2.14-191.48,3.22-1.65-.13-6.39-.27-11.12,2.73-6.29,3.99-7.79,10.51-8.06,11.77-18.92,45.71-37.83,91.43-56.75,137.14-.25,1.55-.41,3.55.43,3.98,1.06.54,3.21-1.71,3.97-2.5,11.02-11.54,65.72-119.02,66.44-120.39.08-.15.16-.31.16-.31.8-1.5,2.06-3.73,2.68-4.59.57-.8,1.94-2.3,5.27-3.29,62.83-6.61,125.65-13.22,188.48-19.83,4.35.07,5.9-2.44,5.91-4.12,0-1.69-1.54-3.85-5.93-3.79Zm5.93-406.72c0-1.69-1.56-4.19-5.91-4.12-62.83-6.61-125.65-13.22-188.48-19.83-3.33-.99-4.7-2.49-5.27-3.29-.62-.86-1.88-3.09-2.68-4.59,0,0-.08-.15-.16-.31-.72-1.37-55.42-108.86-66.44-120.39-.76-.8-2.91-3.05-3.97-2.5-.84.43-.68,2.43-.43,3.98,18.92,45.71,37.83,91.43,56.75,137.14.26,1.26,1.76,7.78,8.06,11.77,4.73,3,9.47,2.85,11.12,2.73,63.83,1.07,127.65,2.14,191.48,3.22,4.39.06,5.93-2.1,5.93-3.79Z"/><path class="cls-4" d="m444.57,363.65v21.66l-11.15,7.22-22.93,255.11c.02.25.02.5.02.75,0,9.66-7.83,17.49-17.48,17.49s-17.49-7.83-17.49-17.49c0-.25,0-.5.02-.75l-22.91-255.11-11.16-7.22v-21.66h103.07Z"/><line class="cls-3" x1="401.9" y1="815.34" x2="401.9" y2="815.3"/><line class="cls-3" x1="401.9" y1="48.21" x2="401.9" y2="48.17"/><path class="cls-6" d="m373.34,363.65c-11.19-8.72-17.77-17.93-21.42-23.97-3.21-5.32-16.81-33.69-11.08-57.61,3.72-15.55,10.49-16.53,15.76-34.71,6.1-21.07-.6-38.44,2.46-39.15,2.16-.5,6.99,7.52,9.11,16.5,4.52,19.12-5.63,32.37.49,37.42,2.76,2.28,7.52,1.81,10.34,0,3.86-2.48,9.66-9.18,11.57-28.31,2.3-22.98-.73-26.92-2.7-43.66-.85-7.24-3.11-15.91.97-16.91,7.57-1.84,21.74,17.23,27.33,37.67,7.75,28.38-2.45,54.23,3.45,56.13,2.24.72,5.13-2.56,5.91-3.45,9.77-11.12-1.95-33,2.95-35.7,3.16-1.74,10.47,6.01,10.83,6.4,21.93,23.58,13.35,66.33,12.8,68.94-6.94,32.84-28.95,52.92-38.16,60.41h-7.14c-.17-1.2-.27-3.07.37-5.14,1.69-5.44,6.59-5.87,10.71-11.94.51-.75,4.92-7.25,2.71-10.59-1.23-1.86-4.01-1.97-8.99-2.09-9.63-.24-11.81,2.1-14.77.25-4.52-2.83-2.57-10.24-6.16-11.2-2.23-.6-5.35,1.63-6.4,4.19-1.38,3.33,1.23,6.07,0,7.39-2.02,2.17-9.52-4.65-13.79-2.22-3.8,2.17-2.78,10.4-2.59,11.94,1.27,10.2,8.77,16.85,12.06,19.41h-6.65Z"/></svg>